<?xml version="1.0" encoding="UTF-8" standalone="no"?>
<!DOCTYPE svg PUBLIC "-//W3C//DTD SVG 1.1//EN"
 "http://www.w3.org/Graphics/SVG/1.1/DTD/svg11.dtd">
<!-- Generated by graphviz version 2.38.0 (20140413.2041)
 -->
<!-- Title: My Diagram Pages: 1 -->
<svg width="502pt" height="382pt"
 viewBox="0.00 0.00 502.14 382.14" xmlns="http://www.w3.org/2000/svg" xmlns:xlink="http://www.w3.org/1999/xlink">
<g id="graph0" class="graph" transform="scale(1 1) rotate(0) translate(4 378.145)">
<title>My Diagram</title>
<polygon fill="white" stroke="none" points="-4,4 -4,-378.145 498.137,-378.145 498.137,4 -4,4"/>
<text text-anchor="start" x="193.172" y="-355.145" font-family="sans-serif" font-weight="bold" font-size="20.00">My Diagram</text>
<g id="clust2" class="cluster"><title>cluster_aws</title>
<polygon fill="none" stroke="#4d4d4d" stroke-dasharray="5,2" points="221.346,-190.145 221.346,-338.145 486.137,-338.145 486.137,-190.145 221.346,-190.145"/>
<text text-anchor="start" x="323.078" y="-326.145" font-family="sans-serif" font-size="10.00" fill="#4d4d4d">Amazon AWS</text>
</g>
<g id="clust1" class="cluster"><title>cluster_browser</title>
<polygon fill="none" stroke="#4d4d4d" stroke-dasharray="5,2" points="8,-110.145 8,-230.145 109.78,-230.145 109.78,-110.145 8,-110.145"/>
<text text-anchor="start" x="40.5524" y="-218.145" font-family="sans-serif" font-size="10.00" fill="#4d4d4d">Browser</text>
</g>
<!-- webapp -->
<g id="node1" class="node"><title>webapp</title>
<ellipse fill="none" stroke="black" cx="58.8898" cy="-161.145" rx="42.7799" ry="42.7799"/>
<text text-anchor="start" x="32.9406" y="-157.945" font-family="sans-serif" font-weight="bold" font-size="14.00">Webapp</text>
</g>
<!-- server -->
<g id="node2" class="node"><title>server</title>
<ellipse fill="none" stroke="black" cx="285.985" cy="-255.145" rx="56.7776" ry="56.7776"/>
<text text-anchor="start" x="249.153" y="-251.945" font-family="sans-serif" font-weight="bold" font-size="14.00">Web Server</text>
</g>
<!-- webapp&#45;&gt;server -->
<g id="edge1" class="edge"><title>webapp&#45;&gt;server</title>
<path fill="none" stroke="black" d="M98.8414,-177.411C133.323,-191.81 184.216,-213.063 224.076,-229.709"/>
<polygon fill="black" stroke="black" points="222.86,-232.994 233.436,-233.618 225.557,-226.534 222.86,-232.994"/>
<text text-anchor="start" x="129.128" y="-225.545" font-family="sans-serif" font-weight="bold" font-size="12.00">(1) Request /</text>
</g>
<!-- analytics -->
<g id="node4" class="node"><title>analytics</title>
<polygon fill="none" stroke="black" stroke-width="2" points="346.274,-120.434 225.695,-120.434 225.695,0.144879 346.274,0.144879 346.274,-120.434"/>
<text text-anchor="start" x="233.84" y="-56.9445" font-family="sans-serif" font-weight="bold" font-size="14.00">Google Analytics</text>
</g>
<!-- webapp&#45;&gt;analytics -->
<g id="edge4" class="edge"><title>webapp&#45;&gt;analytics</title>
<path fill="none" stroke="black" d="M84.2655,-126.418C94.0477,-114.842 106.228,-102.928 119.78,-95.1445 148.674,-78.5496 184.474,-69.7911 215.353,-65.1818"/>
<polygon fill="black" stroke="black" points="216.188,-68.6001 225.619,-63.7724 215.236,-61.6651 216.188,-68.6001"/>
<text text-anchor="start" x="144.799" y="-110.545" font-family="sans-serif" font-weight="bold" font-size="12.00">(4) Log</text>
<text text-anchor="start" x="119.78" y="-98.5445" font-family="sans-serif" font-size="12.00">Page Navigation</text>
</g>
<!-- server&#45;&gt;webapp -->
<g id="edge3" class="edge"><title>server&#45;&gt;webapp</title>
<path fill="none" stroke="black" d="M256.434,-206.502C240.39,-181.104 221.004,-153.919 207.84,-147.145 177.542,-131.553 139.128,-135.775 109.036,-143.516"/>
<polygon fill="black" stroke="black" points="107.874,-140.206 99.1738,-146.253 109.746,-146.952 107.874,-140.206"/>
<text text-anchor="start" x="127.792" y="-162.545" font-family="sans-serif" font-weight="bold" font-size="12.00">(3) Response</text>
<text text-anchor="start" x="132.468" y="-150.545" font-family="sans-serif" font-size="12.00">User Profile</text>
</g>
<!-- logs -->
<g id="node3" class="node"><title>logs</title>
<text text-anchor="start" x="434.958" y="-266.945" font-family="sans-serif" font-weight="bold" font-size="14.00">Logs</text>
<polyline fill="none" stroke="black" points="430.137,-258.145 470.137,-258.145 "/>
<polyline fill="none" stroke="black" points="470.137,-282.145 430.137,-282.145 "/>
</g>
<!-- server&#45;&gt;logs -->
<g id="edge2" class="edge"><title>server&#45;&gt;logs</title>
<path fill="none" stroke="black" d="M342.788,-260.307C365.568,-262.414 391.305,-264.795 411.754,-266.686"/>
<polygon fill="black" stroke="black" points="411.642,-270.191 421.922,-267.627 412.287,-263.221 411.642,-270.191"/>
<text text-anchor="start" x="365.122" y="-280.545" font-family="sans-serif" font-weight="bold" font-size="12.00">(2) Log</text>
<text text-anchor="start" x="364.129" y="-268.545" font-family="sans-serif" font-size="12.00">User IP</text>
</g>
</g>
</svg>
