<?xml version="1.0" encoding="UTF-8" standalone="no"?>
<!DOCTYPE svg PUBLIC "-//W3C//DTD SVG 1.1//EN"
 "http://www.w3.org/Graphics/SVG/1.1/DTD/svg11.dtd">
<!-- Generated by graphviz version 2.38.0 (20140413.2041)
 -->
<!-- Title: Legend Pages: 1 -->
<svg width="297pt" height="284pt"
 viewBox="0.00 0.00 296.55 284.00" xmlns="http://www.w3.org/2000/svg" xmlns:xlink="http://www.w3.org/1999/xlink">
<g id="graph0" class="graph" transform="scale(1 1) rotate(0) translate(4 280)">
<title>Legend</title>
<polygon fill="white" stroke="none" points="-4,4 -4,-280 292.552,-280 292.552,4 -4,4"/>
<text text-anchor="start" x="110.907" y="-257" font-family="sans-serif" font-weight="bold" font-size="20.00">Legend</text>
<g id="clust1" class="cluster"><title>cluster_trust</title>
<polygon fill="none" stroke="#4d4d4d" stroke-dasharray="5,2" points="8,-8 8,-240 280.552,-240 280.552,-8 8,-8"/>
<text text-anchor="start" x="111.666" y="-228" font-family="sans-serif" font-size="10.00" fill="#4d4d4d">TrustBoundary</text>
</g>
<!-- function -->
<g id="node1" class="node"><title>function</title>
<ellipse fill="none" stroke="black" cx="60.0255" cy="-129" rx="44.051" ry="44.051"/>
<text text-anchor="start" x="33.1773" y="-125.8" font-family="sans-serif" font-weight="bold" font-size="14.00">Function</text>
</g>
<!-- database -->
<g id="node2" class="node"><title>database</title>
<text text-anchor="start" x="198.504" y="-30.8" font-family="sans-serif" font-weight="bold" font-size="14.00">Database</text>
<polyline fill="none" stroke="black" points="193.469,-22 262.469,-22 "/>
<polyline fill="none" stroke="black" points="262.469,-46 193.469,-46 "/>
</g>
<!-- function&#45;&gt;database -->
<g id="edge2" class="edge"><title>function&#45;&gt;database</title>
<path fill="none" stroke="black" d="M98.6807,-107.443C124.884,-92.4419 159.787,-72.4609 186.571,-57.1275"/>
<polygon fill="black" stroke="black" points="188.379,-60.1253 195.319,-52.1195 184.901,-54.0504 188.379,-60.1253"/>
<text text-anchor="start" x="122.051" y="-96.4" font-family="sans-serif" font-weight="bold" font-size="12.00">(2) Flow</text>
</g>
<!-- io -->
<g id="node3" class="node"><title>io</title>
<polygon fill="none" stroke="black" stroke-width="2" points="272.635,-213.665 183.304,-213.665 183.304,-124.335 272.635,-124.335 272.635,-213.665"/>
<text text-anchor="start" x="191.387" y="-165.8" font-family="sans-serif" font-weight="bold" font-size="14.00">InputOutput</text>
</g>
<!-- function&#45;&gt;io -->
<g id="edge1" class="edge"><title>function&#45;&gt;io</title>
<path fill="none" stroke="black" d="M102.9,-139.094C124.311,-144.255 150.608,-150.593 173.472,-156.105"/>
<polygon fill="black" stroke="black" points="172.828,-159.55 183.37,-158.49 174.468,-152.745 172.828,-159.55"/>
<text text-anchor="start" x="122.051" y="-157.4" font-family="sans-serif" font-weight="bold" font-size="12.00">(1) Flow</text>
</g>
</g>
</svg>
