<?xml version="1.0" encoding="UTF-8" standalone="no"?>
<!DOCTYPE svg PUBLIC "-//W3C//DTD SVG 1.1//EN"
 "http://www.w3.org/Graphics/SVG/1.1/DTD/svg11.dtd">
<!-- Generated by graphviz version 2.38.0 (20140413.2041)
 -->
<!-- Title: My Diagram Pages: 1 -->
<svg width="523pt" height="316pt"
 viewBox="0.00 0.00 523.48 316.14" xmlns="http://www.w3.org/2000/svg" xmlns:xlink="http://www.w3.org/1999/xlink">
<g id="graph0" class="graph" transform="scale(1 1) rotate(0) translate(4 312.145)">
<title>My Diagram</title>
<polygon fill="white" stroke="none" points="-4,4 -4,-312.145 519.482,-312.145 519.482,4 -4,4"/>
<text text-anchor="start" x="220.013" y="-293.945" font-family="sans-serif" font-weight="bold" font-size="14.00">My Diagram</text>
<g id="clust2" class="cluster"><title>cluster_aws</title>
<polygon fill="none" stroke="black" stroke-dasharray="5,2" points="236.023,-130.145 236.023,-278.145 507.482,-278.145 507.482,-130.145 236.023,-130.145"/>
<text text-anchor="start" x="341.088" y="-266.145" font-family="sans-serif" font-size="10.00" fill="#404040">Amazon AWS</text>
</g>
<g id="clust1" class="cluster"><title>cluster_browser</title>
<polygon fill="none" stroke="black" stroke-dasharray="5,2" points="8,-93.1445 8,-213.145 109.78,-213.145 109.78,-93.1445 8,-93.1445"/>
<text text-anchor="start" x="40.5524" y="-201.145" font-family="sans-serif" font-size="10.00" fill="#404040">Browser</text>
</g>
<!-- webapp -->
<g id="node1" class="node"><title>webapp</title>
<ellipse fill="none" stroke="black" cx="58.8898" cy="-144.145" rx="42.7799" ry="42.7799"/>
<text text-anchor="start" x="32.9406" y="-140.945" font-family="sans-serif" font-weight="bold" font-size="14.00">Webapp</text>
</g>
<!-- server -->
<g id="node2" class="node"><title>server</title>
<ellipse fill="none" stroke="black" cx="300.661" cy="-195.145" rx="56.7776" ry="56.7776"/>
<text text-anchor="start" x="263.829" y="-191.945" font-family="sans-serif" font-weight="bold" font-size="14.00">Web Server</text>
</g>
<!-- webapp&#45;&gt;server -->
<g id="edge1" class="edge"><title>webapp&#45;&gt;server</title>
<path fill="none" stroke="black" d="M96.8322,-164.356C104.258,-167.749 112.133,-170.893 119.78,-173.145 156.726,-184.022 199.471,-189.527 234.019,-192.311"/>
<polygon fill="black" stroke="black" points="233.764,-195.801 243.997,-193.058 234.287,-188.821 233.764,-195.801"/>
<text text-anchor="start" x="130.686" y="-194.945" font-family="sans-serif" font-weight="bold" font-size="14.00">(1) Request /</text>
</g>
<!-- analytics -->
<g id="node4" class="node"><title>analytics</title>
<polygon fill="none" stroke="black" stroke-width="2" points="360.951,-120.434 240.372,-120.434 240.372,0.144879 360.951,0.144879 360.951,-120.434"/>
<text text-anchor="start" x="248.517" y="-56.9445" font-family="sans-serif" font-weight="bold" font-size="14.00">Google Analytics</text>
</g>
<!-- webapp&#45;&gt;analytics -->
<g id="edge4" class="edge"><title>webapp&#45;&gt;analytics</title>
<path fill="none" stroke="black" d="M92.6514,-117.083C101.094,-111.129 110.444,-105.352 119.78,-101.145 154.597,-85.4538 196.002,-75.4852 230.306,-69.3122"/>
<polygon fill="black" stroke="black" points="230.987,-72.7465 240.244,-67.5932 229.794,-65.8489 230.987,-72.7465"/>
<text text-anchor="start" x="148.969" y="-118.945" font-family="sans-serif" font-weight="bold" font-size="14.00">(4) Log</text>
<text text-anchor="start" x="119.78" y="-104.945" font-family="sans-serif" font-size="14.00">Page Navigation</text>
</g>
<!-- server&#45;&gt;webapp -->
<g id="edge3" class="edge"><title>server&#45;&gt;webapp</title>
<path fill="none" stroke="black" d="M257.277,-158.689C246.591,-151.489 234.679,-144.978 222.517,-141.145 186.671,-129.845 144.14,-131.106 111.564,-134.921"/>
<polygon fill="black" stroke="black" points="110.829,-131.487 101.358,-136.237 111.724,-138.429 110.829,-131.487"/>
<text text-anchor="start" x="129.128" y="-158.945" font-family="sans-serif" font-weight="bold" font-size="14.00">(3) Response</text>
<text text-anchor="start" x="134.583" y="-144.945" font-family="sans-serif" font-size="14.00">User Profile</text>
</g>
<!-- logs -->
<g id="node3" class="node"><title>logs</title>
<text text-anchor="start" x="456.303" y="-191.945" font-family="sans-serif" font-weight="bold" font-size="14.00">Logs</text>
<polyline fill="none" stroke="black" points="451.482,-183.145 491.482,-183.145 "/>
<polyline fill="none" stroke="black" points="491.482,-207.145 451.482,-207.145 "/>
</g>
<!-- server&#45;&gt;logs -->
<g id="edge2" class="edge"><title>server&#45;&gt;logs</title>
<path fill="none" stroke="black" d="M357.407,-195.145C382.281,-195.145 410.922,-195.145 433.156,-195.145"/>
<polygon fill="black" stroke="black" points="433.197,-198.645 443.197,-195.145 433.197,-191.645 433.197,-198.645"/>
<text text-anchor="start" x="379.965" y="-212.945" font-family="sans-serif" font-weight="bold" font-size="14.00">(2) Log</text>
<text text-anchor="start" x="378.806" y="-198.945" font-family="sans-serif" font-size="14.00">User IP</text>
</g>
</g>
</svg>
