<?xml version="1.0" encoding="UTF-8" standalone="no"?>
<!DOCTYPE svg PUBLIC "-//W3C//DTD SVG 1.1//EN"
 "http://www.w3.org/Graphics/SVG/1.1/DTD/svg11.dtd">
<!-- Generated by graphviz version 2.38.0 (20140413.2041)
 -->
<!-- Pages: 1 -->
<svg width="312pt" height="357pt"
 viewBox="0.00 0.00 312.00 356.62" xmlns="http://www.w3.org/2000/svg" xmlns:xlink="http://www.w3.org/1999/xlink">
<g id="graph0" class="graph" transform="scale(1 1) rotate(0) translate(4 352.624)">
<polygon fill="white" stroke="none" points="-4,4 -4,-352.624 308,-352.624 308,4 -4,4"/>
<g id="clust1" class="cluster"><title>cluster_boundary</title>
<polygon fill="none" stroke="#595959" stroke-dasharray="5,2" points="8,-8 8,-340.624 296,-340.624 296,-8 8,-8"/>
<text text-anchor="start" x="131.15" y="-329.624" font-family="Arial" font-style="italic" font-size="10.00" fill="#595959">boundary</text>
</g>
<!-- f -->
<g id="node1" class="node"><title>f</title>
<ellipse fill="none" stroke="black" cx="141" cy="-162.562" rx="52.6248" ry="52.6248"/>
<text text-anchor="start" x="107.395" y="-159.362" font-family="Courier,monospace" font-weight="bold" font-size="14.00">function</text>
</g>
<!-- d -->
<g id="node2" class="node"><title>d</title>
<text text-anchor="start" x="107.895" y="-30.8" font-family="Courier,monospace" font-weight="bold" font-size="14.00">database</text>
<polyline fill="none" stroke="black" points="102.5,-22 179.5,-22 "/>
<polyline fill="none" stroke="black" points="179.5,-46 102.5,-46 "/>
</g>
<!-- f&#45;&gt;d -->
<g id="edge1" class="edge"><title>f&#45;&gt;d</title>
<path fill="none" stroke="black" d="M141,-109.719C141,-93.5597 141,-76.3706 141,-62.5583"/>
<polygon fill="black" stroke="black" points="144.5,-62.2892 141,-52.2892 137.5,-62.2892 144.5,-62.2892"/>
<text text-anchor="start" x="141" y="-83.4" font-family="Courier,monospace" font-weight="bold" font-size="12.00" fill="#3184e4">(1) </text>
<text text-anchor="start" x="169.805" y="-83.4" font-family="Courier,monospace" font-weight="bold" font-size="12.00">Operation</text>
<text text-anchor="start" x="175.806" y="-73" font-family="Courier,monospace" font-size="10.00">Data</text>
</g>
<!-- i -->
<g id="node3" class="node"><title>i</title>
<polygon fill="none" stroke="black" stroke-width="2" points="161,-313.125 121,-313.125 121,-273.125 161,-273.125 161,-313.125"/>
<text text-anchor="start" x="132.599" y="-289.925" font-family="Courier,monospace" font-weight="bold" font-size="14.00">io</text>
</g>
<!-- i&#45;&gt;f -->
<g id="edge2" class="edge"><title>i&#45;&gt;f</title>
<path fill="none" stroke="black" d="M120.976,-286.865C105.453,-281.618 84.9896,-271.868 75.1953,-255.125 64.3096,-236.516 74.969,-216.972 90.6506,-200.742"/>
<polygon fill="black" stroke="black" points="93.3659,-202.986 98.1497,-193.533 88.5148,-197.94 93.3659,-202.986"/>
<text text-anchor="start" x="75" y="-246.525" font-family="Courier,monospace" font-weight="bold" font-size="12.00" fill="#3184e4">(2) </text>
<text text-anchor="start" x="77.4004" y="-236.125" font-family="Courier,monospace" font-size="10.00">Data</text>
</g>
<!-- i&#45;&gt;f -->
<g id="edge3" class="edge"><title>i&#45;&gt;f</title>
<path fill="none" stroke="black" d="M141,-262.801C141,-248.708 141,-231.394 141,-215.195"/>
<polygon fill="black" stroke="black" points="137.5,-262.878 141,-272.878 144.5,-262.878 137.5,-262.878"/>
<text text-anchor="start" x="141" y="-241.525" font-family="Courier,monospace" font-weight="bold" font-size="12.00" fill="#3184e4">(3) </text>
<text text-anchor="start" x="169.805" y="-241.525" font-family="Courier,monospace" font-weight="bold" font-size="12.00">Operation</text>
</g>
</g>
</svg>
