<?xml version="1.0" encoding="UTF-8" standalone="no"?>
<!DOCTYPE svg PUBLIC "-//W3C//DTD SVG 1.1//EN"
 "http://www.w3.org/Graphics/SVG/1.1/DTD/svg11.dtd">
<!-- Generated by graphviz version 2.38.0 (20140413.2041)
 -->
<!-- Pages: 1 -->
<svg width="281pt" height="335pt"
 viewBox="0.00 0.00 281.00 335.04" xmlns="http://www.w3.org/2000/svg" xmlns:xlink="http://www.w3.org/1999/xlink">
<g id="graph0" class="graph" transform="scale(1 1) rotate(0) translate(4 331.04)">
<polygon fill="white" stroke="none" points="-4,4 -4,-331.04 277,-331.04 277,4 -4,4"/>
<g id="clust1" class="cluster"><title>cluster_boundary</title>
<polygon fill="none" stroke="#595959" stroke-dasharray="5,2" points="8,-8 8,-319.04 265,-319.04 265,-8 8,-8"/>
<text text-anchor="start" x="115.65" y="-308.04" font-family="Arial" font-style="italic" font-size="10.00" fill="#595959">boundary</text>
</g>
<!-- f -->
<g id="node1" class="node"><title>f</title>
<ellipse fill="none" stroke="black" cx="137" cy="-153.771" rx="43.5426" ry="43.5426"/>
<text text-anchor="start" x="112.483" y="-151.62" font-family="Arial" font-weight="bold" font-size="14.00">function</text>
</g>
<!-- d -->
<g id="node2" class="node"><title>d</title>
<text text-anchor="start" x="108.697" y="-31.8" font-family="Arial" font-weight="bold" font-size="14.00">database</text>
<polyline fill="none" stroke="black" points="103.5,-21 170.5,-21 "/>
<polyline fill="none" stroke="black" points="170.5,-47 103.5,-47 "/>
</g>
<!-- f&#45;&gt;d -->
<g id="edge1" class="edge"><title>f&#45;&gt;d</title>
<path fill="none" stroke="black" d="M137,-109.92C137,-93.9872 137,-76.3595 137,-62.2075"/>
<polygon fill="black" stroke="black" points="140.5,-62.1485 137,-52.1485 133.5,-62.1485 140.5,-62.1485"/>
<text text-anchor="start" x="137" y="-83.4" font-family="Arial" font-weight="bold" font-size="12.00" fill="#3184e4">(1) </text>
<text text-anchor="start" x="155" y="-83.4" font-family="Arial" font-weight="bold" font-size="12.00">Operation</text>
<text text-anchor="start" x="161.788" y="-73" font-family="Arial" font-size="10.00">Data</text>
</g>
<!-- i -->
<g id="node3" class="node"><title>i</title>
<polygon fill="none" stroke="black" stroke-width="2" points="155,-291.541 119,-291.541 119,-255.541 155,-255.541 155,-291.541"/>
<text text-anchor="start" x="131.552" y="-271.341" font-family="Arial" font-weight="bold" font-size="14.00">io</text>
</g>
<!-- i&#45;&gt;f -->
<g id="edge2" class="edge"><title>i&#45;&gt;f</title>
<path fill="none" stroke="black" d="M118.971,-267.486C104.743,-262.44 85.847,-253.143 76.877,-237.541 66.6824,-219.811 77.8251,-201.283 93.1717,-186.263"/>
<polygon fill="black" stroke="black" points="95.9132,-188.502 100.968,-179.191 91.2099,-183.317 95.9132,-188.502"/>
<text text-anchor="start" x="77.5615" y="-228.941" font-family="Arial" font-weight="bold" font-size="12.00" fill="#3184e4">(2) </text>
<text text-anchor="start" x="76" y="-218.541" font-family="Arial" font-size="10.00">Data</text>
</g>
<!-- i&#45;&gt;f -->
<g id="edge3" class="edge"><title>i&#45;&gt;f</title>
<path fill="none" stroke="black" d="M137,-245.352C137,-231.191 137,-213.545 137,-197.6"/>
<polygon fill="black" stroke="black" points="133.5,-245.416 137,-255.417 140.5,-245.417 133.5,-245.416"/>
<text text-anchor="start" x="137" y="-224.841" font-family="Arial" font-weight="bold" font-size="12.00" fill="#3184e4">(3) </text>
<text text-anchor="start" x="155" y="-224.841" font-family="Arial" font-weight="bold" font-size="12.00">Operation</text>
</g>
</g>
</svg>
