<?xml version="1.0" encoding="UTF-8" standalone="no"?>
<!DOCTYPE svg PUBLIC "-//W3C//DTD SVG 1.1//EN"
 "http://www.w3.org/Graphics/SVG/1.1/DTD/svg11.dtd">
<!-- Generated by graphviz version 2.38.0 (20140413.2041)
 -->
<!-- Title: Legend Pages: 1 -->
<svg width="370pt" height="331pt"
 viewBox="0.00 0.00 370.00 331.48" xmlns="http://www.w3.org/2000/svg" xmlns:xlink="http://www.w3.org/1999/xlink">
<g id="graph0" class="graph" transform="scale(1 1) rotate(0) translate(4 327.479)">
<title>Legend</title>
<polygon fill="white" stroke="none" points="-4,4 -4,-327.479 366,-327.479 366,4 -4,4"/>
<text text-anchor="start" x="147.631" y="-304.479" font-family="Arial" font-weight="bold" font-size="20.00">Legend</text>
<g id="clust1" class="cluster"><title>cluster_trust</title>
<polygon fill="none" stroke="#595959" stroke-dasharray="5,2" points="8,-8 8,-284.481 354,-284.481 354,-8 8,-8"/>
<text text-anchor="start" x="148.393" y="-273.481" font-family="Arial" font-style="italic" font-size="10.00" fill="#595959">TrustBoundary</text>
</g>
<!-- function -->
<g id="node1" class="node"><title>function</title>
<ellipse fill="none" stroke="black" cx="190" cy="-210.074" rx="46.8172" ry="46.8172"/>
<text text-anchor="start" x="163.152" y="-207.923" font-family="Arial" font-weight="bold" font-size="14.00">Function</text>
</g>
<!-- database -->
<g id="node2" class="node"><title>database</title>
<text text-anchor="start" x="58.5347" y="-58.3825" font-family="Arial" font-weight="bold" font-size="14.00">Database</text>
<polyline fill="none" stroke="black" points="53.5,-47.5825 122.5,-47.5825 "/>
<polyline fill="none" stroke="black" points="122.5,-73.5825 53.5,-73.5825 "/>
</g>
<!-- function&#45;&gt;database -->
<g id="edge3" class="edge"><title>function&#45;&gt;database</title>
<path fill="none" stroke="black" d="M156.061,-177.629C146.51,-167.788 136.58,-156.519 128.664,-145.165 116.243,-127.349 105.643,-105.165 98.3825,-88.129"/>
<polygon fill="black" stroke="black" points="101.565,-86.6655 94.5049,-78.7656 95.0974,-89.3438 101.565,-86.6655"/>
<text text-anchor="start" x="129" y="-132.464" font-family="Arial" font-weight="bold" font-size="12.00">Flow</text>
</g>
<!-- io -->
<g id="node3" class="node"><title>io</title>
<polygon fill="none" stroke="black" stroke-width="2" points="313.665,-105.248 224.335,-105.248 224.335,-15.9173 313.665,-15.9173 313.665,-105.248"/>
<text text-anchor="start" x="232.417" y="-58.4318" font-family="Arial" font-weight="bold" font-size="14.00">InputOutput</text>
</g>
<!-- function&#45;&gt;io -->
<g id="edge1" class="edge"><title>function&#45;&gt;io</title>
<path fill="none" stroke="black" d="M173.056,-166.198C170.005,-151.853 169.686,-136.207 176.664,-123.165 185.251,-107.116 200.073,-94.5268 215.359,-85.0284"/>
<polygon fill="black" stroke="black" points="217.483,-87.8421 224.369,-79.7904 213.965,-81.7904 217.483,-87.8421"/>
<text text-anchor="start" x="177" y="-132.464" font-family="Arial" font-weight="bold" font-size="12.00">Flow</text>
</g>
<!-- function&#45;&gt;io -->
<g id="edge2" class="edge"><title>function&#45;&gt;io</title>
<path fill="none" stroke="black" d="M216.6,-159.412C226.002,-141.858 236.5,-122.259 245.616,-105.241"/>
<polygon fill="black" stroke="black" points="213.433,-157.913 211.796,-168.381 219.603,-161.218 213.433,-157.913"/>
<text text-anchor="start" x="248.561" y="-136.565" font-family="Arial" font-weight="bold" font-size="12.00">Flow</text>
<text text-anchor="start" x="234" y="-126.165" font-family="Arial" font-size="10.00">(backwards)</text>
</g>
</g>
</svg>
