<?xml version="1.0" encoding="UTF-8" standalone="no"?>
<!DOCTYPE svg PUBLIC "-//W3C//DTD SVG 1.1//EN"
 "http://www.w3.org/Graphics/SVG/1.1/DTD/svg11.dtd">
<!-- Generated by graphviz version 2.38.0 (20140413.2041)
 -->
<!-- Title: Legend Pages: 1 -->
<svg width="231pt" height="290pt"
 viewBox="0.00 0.00 231.00 289.54" xmlns="http://www.w3.org/2000/svg" xmlns:xlink="http://www.w3.org/1999/xlink">
<g id="graph0" class="graph" transform="scale(1 1) rotate(0) translate(4 285.544)">
<title>Legend</title>
<polygon fill="white" stroke="none" points="-4,4 -4,-285.544 227,-285.544 227,4 -4,4"/>
<g id="clust1" class="cluster"><title>cluster_trust</title>
<polygon fill="none" stroke="#4d4d4d" stroke-dasharray="5,2" points="8,-8 8,-273.544 215,-273.544 215,-8 8,-8"/>
<text text-anchor="start" x="81.3999" y="-262.544" font-family="Times,serif" font-weight="bold" font-size="10.00" fill="#4d4d4d">TrustBoundary</text>
</g>
<!-- function -->
<g id="node1" class="node"><title>function</title>
<ellipse fill="none" stroke="black" cx="86" cy="-205.993" rx="41.6025" ry="41.6025"/>
<text text-anchor="start" x="61.1104" y="-202.793" font-family="Times,serif" font-weight="bold" font-size="14.00">Function</text>
</g>
<!-- database -->
<g id="node2" class="node"><title>database</title>
<text text-anchor="start" x="29.8481" y="-55.0207" font-family="Times,serif" font-weight="bold" font-size="14.00">Database</text>
<polyline fill="none" stroke="black" points="24.5,-46.2207 85.5,-46.2207 "/>
<polyline fill="none" stroke="black" points="85.5,-70.2207 24.5,-70.2207 "/>
</g>
<!-- function&#45;&gt;database -->
<g id="edge3" class="edge"><title>function&#45;&gt;database</title>
<path fill="none" stroke="black" d="M55.24,-177.674C47.151,-168.628 39.496,-157.913 35.2139,-146.441 27.8607,-126.742 33.8238,-103.477 41.0725,-85.9313"/>
<polygon fill="black" stroke="black" points="44.4808,-86.8868 45.3981,-76.3318 38.0988,-84.0111 44.4808,-86.8868"/>
<text text-anchor="start" x="36" y="-129.241" font-family="Times,serif" font-weight="bold" font-size="14.00">Flow</text>
</g>
<!-- io -->
<g id="node3" class="node"><title>io</title>
<polygon fill="none" stroke="black" stroke-width="2" points="196.443,-100.663 111.557,-100.663 111.557,-15.7781 196.443,-15.7781 196.443,-100.663"/>
<text text-anchor="start" x="119.779" y="-55.0207" font-family="Times,serif" font-weight="bold" font-size="14.00">InputOutput</text>
</g>
<!-- function&#45;&gt;io -->
<g id="edge1" class="edge"><title>function&#45;&gt;io</title>
<path fill="none" stroke="black" d="M79.8896,-164.715C79.2819,-149.598 80.703,-132.649 87.2139,-118.441 89.5617,-113.318 95.9666,-106.325 103.934,-98.9394"/>
<polygon fill="black" stroke="black" points="106.483,-101.355 111.618,-92.088 101.825,-96.1306 106.483,-101.355"/>
<text text-anchor="start" x="88" y="-129.241" font-family="Times,serif" font-weight="bold" font-size="14.00">Flow</text>
</g>
<!-- function&#45;&gt;io -->
<g id="edge2" class="edge"><title>function&#45;&gt;io</title>
<path fill="none" stroke="black" d="M109.514,-159.792C111.744,-155.3 113.94,-150.793 116,-146.441 122.997,-131.662 130.266,-115.27 136.549,-100.722"/>
<polygon fill="black" stroke="black" points="106.281,-158.43 104.921,-168.937 112.537,-161.572 106.281,-158.43"/>
<text text-anchor="start" x="148.2" y="-136.241" font-family="Times,serif" font-weight="bold" font-size="14.00">Flow</text>
<text text-anchor="start" x="128" y="-122.241" font-family="Times,serif" font-size="14.00">(backwards)</text>
</g>
</g>
</svg>
