<?xml version="1.0" encoding="UTF-8" standalone="no"?>
<!DOCTYPE svg PUBLIC "-//W3C//DTD SVG 1.1//EN"
 "http://www.w3.org/Graphics/SVG/1.1/DTD/svg11.dtd">
<!-- Generated by graphviz version 2.38.0 (20140413.2041)
 -->
<!-- Pages: 1 -->
<svg width="313pt" height="357pt"
 viewBox="0.00 0.00 313.00 356.62" xmlns="http://www.w3.org/2000/svg" xmlns:xlink="http://www.w3.org/1999/xlink">
<g id="graph0" class="graph" transform="scale(1 1) rotate(0) translate(4 352.624)">
<polygon fill="white" stroke="none" points="-4,4 -4,-352.624 309,-352.624 309,4 -4,4"/>
<g id="clust1" class="cluster"><title>cluster_boundary</title>
<polygon fill="none" stroke="#595959" stroke-dasharray="5,2" points="8,-8 8,-340.624 297,-340.624 297,-8 8,-8"/>
<text text-anchor="start" x="131.65" y="-329.624" font-family="Arial" font-style="italic" font-size="10.00" fill="#595959">boundary</text>
</g>
<!-- f -->
<g id="node1" class="node"><title>f</title>
<ellipse fill="none" stroke="black" cx="155" cy="-162.562" rx="52.6248" ry="52.6248"/>
<text text-anchor="start" x="121.395" y="-159.362" font-family="Courier,monospace" font-weight="bold" font-size="14.00">function</text>
</g>
<!-- d -->
<g id="node2" class="node"><title>d</title>
<text text-anchor="start" x="121.895" y="-30.8" font-family="Courier,monospace" font-weight="bold" font-size="14.00">database</text>
<polyline fill="none" stroke="black" points="116.5,-22 193.5,-22 "/>
<polyline fill="none" stroke="black" points="193.5,-46 116.5,-46 "/>
</g>
<!-- f&#45;&gt;d -->
<g id="edge1" class="edge"><title>f&#45;&gt;d</title>
<path fill="none" stroke="black" d="M155,-109.719C155,-93.5597 155,-76.3706 155,-62.5583"/>
<polygon fill="black" stroke="black" points="158.5,-62.2892 155,-52.2892 151.5,-62.2892 158.5,-62.2892"/>
<text text-anchor="start" x="159.201" y="-83.4" font-family="Courier,monospace" font-weight="bold" font-size="12.00" fill="#3184e4">(1) </text>
<text text-anchor="start" x="188.005" y="-83.4" font-family="Courier,monospace" font-weight="bold" font-size="12.00">Data</text>
<text text-anchor="start" x="155" y="-73" font-family="Courier,monospace" font-size="10.00">Description</text>
</g>
<!-- i -->
<g id="node3" class="node"><title>i</title>
<polygon fill="none" stroke="black" stroke-width="2" points="179,-313.125 139,-313.125 139,-273.125 179,-273.125 179,-313.125"/>
<text text-anchor="start" x="150.599" y="-289.925" font-family="Courier,monospace" font-weight="bold" font-size="14.00">io</text>
</g>
<!-- i&#45;&gt;f -->
<g id="edge2" class="edge"><title>i&#45;&gt;f</title>
<path fill="none" stroke="black" d="M138.67,-289.499C118.621,-285.709 89.0072,-276.616 74.9893,-255.125 60.8658,-233.472 78.5636,-211.583 100.87,-194.638"/>
<polygon fill="black" stroke="black" points="103.162,-197.302 109.247,-188.628 99.0811,-191.614 103.162,-197.302"/>
<text text-anchor="start" x="92.603" y="-246.525" font-family="Courier,monospace" font-weight="bold" font-size="12.00" fill="#3184e4">(2) </text>
<text text-anchor="start" x="74" y="-236.125" font-family="Courier,monospace" font-size="10.00">Description</text>
</g>
<!-- i&#45;&gt;f -->
<g id="edge3" class="edge"><title>i&#45;&gt;f</title>
<path fill="none" stroke="black" d="M158.088,-262.801C157.649,-248.708 157.11,-231.394 156.606,-215.195"/>
<polygon fill="black" stroke="black" points="154.592,-262.991 158.401,-272.878 161.588,-262.774 154.592,-262.991"/>
<text text-anchor="start" x="157" y="-241.525" font-family="Courier,monospace" font-weight="bold" font-size="12.00" fill="#3184e4">(3) </text>
<text text-anchor="start" x="185.805" y="-241.525" font-family="Courier,monospace" font-weight="bold" font-size="12.00">Data</text>
</g>
</g>
</svg>
