<?xml version="1.0" encoding="UTF-8" standalone="no"?>
<!DOCTYPE svg PUBLIC "-//W3C//DTD SVG 1.1//EN"
 "http://www.w3.org/Graphics/SVG/1.1/DTD/svg11.dtd">
<!-- Generated by graphviz version 2.38.0 (20140413.2041)
 -->
<!-- Title: Untitled Pages: 1 -->
<svg width="406pt" height="308pt"
 viewBox="0.00 0.00 406.00 308.32" xmlns="http://www.w3.org/2000/svg" xmlns:xlink="http://www.w3.org/1999/xlink">
<g id="graph0" class="graph" transform="scale(1 1) rotate(0) translate(4 304.316)">
<title>Untitled</title>
<polygon fill="white" stroke="none" points="-4,4 -4,-304.316 402,-304.316 402,4 -4,4"/>
<g id="clust1" class="cluster"><title>cluster_trust</title>
<polygon fill="none" stroke="#595959" stroke-dasharray="5,2" points="8,-8 8,-292.316 390,-292.316 390,-8 8,-8"/>
<text text-anchor="start" x="166.393" y="-281.316" font-family="Arial" font-style="italic" font-size="10.00" fill="#595959">TrustBoundary</text>
</g>
<!-- function -->
<g id="node1" class="node"><title>function</title>
<ellipse fill="none" stroke="black" cx="208" cy="-217.908" rx="46.8172" ry="46.8172"/>
<text text-anchor="start" x="181.152" y="-215.758" font-family="Arial" font-weight="bold" font-size="14.00">Function</text>
</g>
<!-- database -->
<g id="node2" class="node"><title>database</title>
<text text-anchor="start" x="58.5347" y="-62.3" font-family="Arial" font-weight="bold" font-size="14.00">Database</text>
<polyline fill="none" stroke="black" points="53.5,-51.5 122.5,-51.5 "/>
<polyline fill="none" stroke="black" points="122.5,-77.5 53.5,-77.5 "/>
</g>
<!-- function&#45;&gt;database -->
<g id="edge3" class="edge"><title>function&#45;&gt;database</title>
<path fill="none" stroke="black" d="M169.293,-191.395C155.216,-180.751 139.998,-167.488 128.664,-153 114.295,-134.632 103.528,-110.364 96.6951,-92.0459"/>
<polygon fill="black" stroke="black" points="99.9655,-90.7966 93.3059,-82.5564 93.3733,-93.151 99.9655,-90.7966"/>
<text text-anchor="start" x="129" y="-140.299" font-family="Arial" font-weight="bold" font-size="12.00" fill="#3184e4">(3) </text>
<text text-anchor="start" x="147" y="-140.299" font-family="Arial" font-weight="bold" font-size="12.00">Flow</text>
</g>
<!-- io -->
<g id="node3" class="node"><title>io</title>
<polygon fill="none" stroke="black" stroke-width="2" points="337.5,-113 240.5,-113 240.5,-16 337.5,-16 337.5,-113"/>
<text text-anchor="start" x="252.917" y="-62.3" font-family="Arial" font-weight="bold" font-size="14.00">InputOutput</text>
</g>
<!-- function&#45;&gt;io -->
<g id="edge1" class="edge"><title>function&#45;&gt;io</title>
<path fill="none" stroke="black" d="M191.196,-174.107C188.156,-159.768 187.808,-144.107 194.664,-131 202.93,-115.197 216.936,-102.441 231.662,-92.5323"/>
<polygon fill="black" stroke="black" points="233.794,-95.3258 240.378,-87.0254 230.054,-89.408 233.794,-95.3258"/>
<text text-anchor="start" x="195" y="-140.299" font-family="Arial" font-weight="bold" font-size="12.00" fill="#3184e4">(1) </text>
<text text-anchor="start" x="213" y="-140.299" font-family="Arial" font-weight="bold" font-size="12.00">Flow</text>
</g>
<!-- function&#45;&gt;io -->
<g id="edge2" class="edge"><title>function&#45;&gt;io</title>
<path fill="none" stroke="black" d="M241.242,-170.972C245.053,-165.037 248.737,-158.952 252,-153 258.898,-140.418 265.381,-126.282 270.934,-113.101"/>
<polygon fill="black" stroke="black" points="238.183,-169.252 235.599,-179.527 244.027,-173.106 238.183,-169.252"/>
<text text-anchor="start" x="267.561" y="-144.4" font-family="Arial" font-weight="bold" font-size="12.00" fill="#3184e4">(2) </text>
<text text-anchor="start" x="285.561" y="-144.4" font-family="Arial" font-weight="bold" font-size="12.00">Flow</text>
<text text-anchor="start" x="262" y="-134" font-family="Arial" font-size="10.00">(backwards)</text>
</g>
</g>
</svg>
