<?xml version="1.0" encoding="UTF-8" standalone="no"?>
<!DOCTYPE svg PUBLIC "-//W3C//DTD SVG 1.1//EN"
 "http://www.w3.org/Graphics/SVG/1.1/DTD/svg11.dtd">
<!-- Generated by graphviz version 2.38.0 (20140413.2041)
 -->
<!-- Title: Legend Pages: 1 -->
<svg width="240pt" height="299pt"
 viewBox="0.00 0.00 240.00 299.22" xmlns="http://www.w3.org/2000/svg" xmlns:xlink="http://www.w3.org/1999/xlink">
<g id="graph0" class="graph" transform="scale(1 1) rotate(0) translate(4 295.216)">
<title>Legend</title>
<polygon fill="white" stroke="none" points="-4,4 -4,-295.216 236,-295.216 236,4 -4,4"/>
<g id="clust1" class="cluster"><title>cluster_trust</title>
<polygon fill="none" stroke="#4d4d4d" stroke-dasharray="5,2" points="8,-8 8,-283.216 224,-283.216 224,-8 8,-8"/>
<text text-anchor="start" x="83.3901" y="-272.216" font-family="Helvetica,sans-Serif" font-weight="bold" font-size="10.00" fill="#4d4d4d">TrustBoundary</text>
</g>
<!-- function -->
<g id="node1" class="node"><title>function</title>
<ellipse fill="none" stroke="black" cx="87" cy="-213.191" rx="44.051" ry="44.051"/>
<text text-anchor="start" x="60.1519" y="-209.991" font-family="Helvetica,sans-Serif" font-weight="bold" font-size="14.00">Function</text>
</g>
<!-- database -->
<g id="node2" class="node"><title>database</title>
<text text-anchor="start" x="29.5347" y="-57.3825" font-family="Helvetica,sans-Serif" font-weight="bold" font-size="14.00">Database</text>
<polyline fill="none" stroke="black" points="24.5,-48.5825 93.5,-48.5825 "/>
<polyline fill="none" stroke="black" points="93.5,-72.5825 24.5,-72.5825 "/>
</g>
<!-- function&#45;&gt;database -->
<g id="edge3" class="edge"><title>function&#45;&gt;database</title>
<path fill="none" stroke="black" d="M54.9484,-182.65C47.0382,-173.42 39.6353,-162.627 35.4414,-151.165 27.8419,-130.395 35.2072,-106.086 43.6516,-88.036"/>
<polygon fill="black" stroke="black" points="46.9762,-89.2174 48.3657,-78.714 40.7295,-86.0584 46.9762,-89.2174"/>
<text text-anchor="start" x="36" y="-133.965" font-family="Helvetica,sans-Serif" font-weight="bold" font-size="14.00">Flow</text>
</g>
<!-- io -->
<g id="node3" class="node"><title>io</title>
<polygon fill="none" stroke="black" stroke-width="2" points="208.665,-105.248 119.335,-105.248 119.335,-15.9173 208.665,-15.9173 208.665,-105.248"/>
<text text-anchor="start" x="127.417" y="-57.3825" font-family="Helvetica,sans-Serif" font-weight="bold" font-size="14.00">InputOutput</text>
</g>
<!-- function&#45;&gt;io -->
<g id="edge1" class="edge"><title>function&#45;&gt;io</title>
<path fill="none" stroke="black" d="M80.4526,-169.252C79.967,-154.033 81.6284,-137.212 88.4414,-123.165 88.6535,-122.728 98.4552,-114.664 110.932,-104.508"/>
<polygon fill="black" stroke="black" points="113.432,-106.987 118.985,-97.9636 109.017,-101.554 113.432,-106.987"/>
<text text-anchor="start" x="89" y="-133.965" font-family="Helvetica,sans-Serif" font-weight="bold" font-size="14.00">Flow</text>
</g>
<!-- function&#45;&gt;io -->
<g id="edge2" class="edge"><title>function&#45;&gt;io</title>
<path fill="none" stroke="black" d="M111.458,-164.351C121.139,-145.416 132.192,-123.797 141.655,-105.288"/>
<polygon fill="black" stroke="black" points="108.265,-162.908 106.829,-173.405 114.498,-166.095 108.265,-162.908"/>
<text text-anchor="start" x="156.341" y="-140.965" font-family="Helvetica,sans-Serif" font-weight="bold" font-size="14.00">Flow</text>
<text text-anchor="start" x="133" y="-126.965" font-family="Helvetica,sans-Serif" font-size="14.00">(backwards)</text>
</g>
</g>
</svg>
