<?xml version="1.0" encoding="UTF-8" standalone="no"?>
<!DOCTYPE svg PUBLIC "-//W3C//DTD SVG 1.1//EN"
 "http://www.w3.org/Graphics/SVG/1.1/DTD/svg11.dtd">
<!-- Generated by graphviz version 2.38.0 (20140413.2041)
 -->
<!-- Pages: 1 -->
<svg width="313pt" height="357pt"
 viewBox="0.00 0.00 313.00 356.62" xmlns="http://www.w3.org/2000/svg" xmlns:xlink="http://www.w3.org/1999/xlink">
<g id="graph0" class="graph" transform="scale(1 1) rotate(0) translate(4 352.624)">
<polygon fill="white" stroke="none" points="-4,4 -4,-352.624 309,-352.624 309,4 -4,4"/>
<g id="clust1" class="cluster"><title>cluster_boundary</title>
<polygon fill="none" stroke="#595959" stroke-dasharray="5,2" points="8,-8 8,-340.624 297,-340.624 297,-8 8,-8"/>
<text text-anchor="start" x="131.65" y="-329.624" font-family="Arial" font-style="italic" font-size="10.00" fill="#595959">boundary</text>
</g>
<!-- f -->
<g id="node1" class="node"><title>f</title>
<ellipse fill="none" stroke="black" cx="155" cy="-166.562" rx="52.6248" ry="52.6248"/>
<text text-anchor="start" x="121.395" y="-163.362" font-family="Courier,monospace" font-weight="bold" font-size="14.00">function</text>
</g>
<!-- i -->
<g id="node3" class="node"><title>i</title>
<polygon fill="none" stroke="black" stroke-width="2" points="179,-56 139,-56 139,-16 179,-16 179,-56"/>
<text text-anchor="start" x="150.599" y="-32.8" font-family="Courier,monospace" font-weight="bold" font-size="14.00">io</text>
</g>
<!-- f&#45;&gt;i -->
<g id="edge2" class="edge"><title>f&#45;&gt;i</title>
<path fill="none" stroke="black" d="M109.247,-140.496C83.3903,-122.922 59.1313,-98.3119 74.9893,-74 86.8169,-55.8669 109.748,-46.5597 128.668,-41.8175"/>
<polygon fill="black" stroke="black" points="129.651,-45.1851 138.67,-39.6256 128.153,-38.3474 129.651,-45.1851"/>
<text text-anchor="start" x="92.603" y="-87.4" font-family="Courier,monospace" font-weight="bold" font-size="12.00" fill="#3184e4">(2) </text>
<text text-anchor="start" x="74" y="-77" font-family="Courier,monospace" font-size="10.00">Description</text>
</g>
<!-- f&#45;&gt;i -->
<g id="edge3" class="edge"><title>f&#45;&gt;i</title>
<path fill="none" stroke="black" d="M156.92,-103.866C157.459,-86.521 158.007,-68.9241 158.405,-56.1386"/>
<polygon fill="black" stroke="black" points="153.417,-103.908 156.604,-114.012 160.413,-104.126 153.417,-103.908"/>
<text text-anchor="start" x="157" y="-82.4" font-family="Courier,monospace" font-weight="bold" font-size="12.00" fill="#3184e4">(3) </text>
<text text-anchor="start" x="185.805" y="-82.4" font-family="Courier,monospace" font-weight="bold" font-size="12.00">Data</text>
</g>
<!-- d -->
<g id="node2" class="node"><title>d</title>
<text text-anchor="start" x="121.895" y="-291.925" font-family="Courier,monospace" font-weight="bold" font-size="14.00">database</text>
<polyline fill="none" stroke="black" points="116.5,-283.125 193.5,-283.125 "/>
<polyline fill="none" stroke="black" points="193.5,-307.125 116.5,-307.125 "/>
</g>
<!-- d&#45;&gt;f -->
<g id="edge1" class="edge"><title>d&#45;&gt;f</title>
<path fill="none" stroke="black" d="M155,-277.056C155,-264.647 155,-247.026 155,-229.538"/>
<polygon fill="black" stroke="black" points="158.5,-229.297 155,-219.297 151.5,-229.297 158.5,-229.297"/>
<text text-anchor="start" x="159.201" y="-250.525" font-family="Courier,monospace" font-weight="bold" font-size="12.00" fill="#3184e4">(1) </text>
<text text-anchor="start" x="188.005" y="-250.525" font-family="Courier,monospace" font-weight="bold" font-size="12.00">Data</text>
<text text-anchor="start" x="155" y="-240.125" font-family="Courier,monospace" font-size="10.00">Description</text>
</g>
</g>
</svg>
