<?xml version="1.0" encoding="UTF-8" standalone="no"?>
<!DOCTYPE svg PUBLIC "-//W3C//DTD SVG 1.1//EN"
 "http://www.w3.org/Graphics/SVG/1.1/DTD/svg11.dtd">
<!-- Generated by graphviz version 2.38.0 (20140413.2041)
 -->
<!-- Title: Legend Pages: 1 -->
<svg width="372pt" height="293pt"
 viewBox="0.00 0.00 372.00 293.02" xmlns="http://www.w3.org/2000/svg" xmlns:xlink="http://www.w3.org/1999/xlink">
<g id="graph0" class="graph" transform="scale(1 1) rotate(0) translate(4 289.021)">
<title>Legend</title>
<polygon fill="white" stroke="none" points="-4,4 -4,-289.021 368,-289.021 368,4 -4,4"/>
<text text-anchor="start" x="148.631" y="-266.021" font-family="Arial" font-weight="bold" font-size="20.00">Legend</text>
<g id="clust1" class="cluster"><title>cluster_trust</title>
<polygon fill="none" stroke="#4d4d4d" stroke-dasharray="5,2" points="8,-8 8,-246.023 356,-246.023 356,-8 8,-8"/>
<text text-anchor="start" x="149.393" y="-235.023" font-family="Arial" font-weight="bold" font-size="10.00" fill="#4d4d4d">TrustBoundary</text>
</g>
<!-- function -->
<g id="node1" class="node"><title>function</title>
<ellipse fill="none" stroke="black" cx="188" cy="-183.005" rx="35.5371" ry="35.5371"/>
<text text-anchor="start" x="166.905" y="-181.53" font-family="Arial" font-weight="bold" font-size="11.00">Function</text>
</g>
<!-- database -->
<g id="node2" class="node"><title>database</title>
<text text-anchor="start" x="64.9558" y="-50.9434" font-family="Arial" font-weight="bold" font-size="11.00">Database</text>
<polyline fill="none" stroke="black" points="59.5,-41.7434 116.5,-41.7434 "/>
<polyline fill="none" stroke="black" points="116.5,-63.7434 59.5,-63.7434 "/>
</g>
<!-- function&#45;&gt;database -->
<g id="edge3" class="edge"><title>function&#45;&gt;database</title>
<path fill="none" stroke="black" d="M160.141,-160.807C149.525,-151.876 137.817,-140.908 128.775,-129.487 116.914,-114.502 106.722,-95.5719 99.4946,-80.385"/>
<polygon fill="black" stroke="black" points="102.547,-78.6447 95.1854,-71.0247 96.188,-81.572 102.547,-78.6447"/>
<text text-anchor="start" x="129" y="-117.011" font-family="Arial" font-weight="bold" font-size="11.00">Flow</text>
</g>
<!-- io -->
<g id="node3" class="node"><title>io</title>
<polygon fill="none" stroke="black" stroke-width="2" points="296.988,-89.7318 223.012,-89.7318 223.012,-15.755 296.988,-15.755 296.988,-89.7318"/>
<text text-anchor="start" x="231.257" y="-51.2679" font-family="Arial" font-weight="bold" font-size="11.00">InputOutput</text>
</g>
<!-- function&#45;&gt;io -->
<g id="edge1" class="edge"><title>function&#45;&gt;io</title>
<path fill="none" stroke="black" d="M173.518,-150.396C169.34,-136.53 167.604,-120.488 174.775,-107.487 183.392,-91.8664 198.669,-80.1623 213.932,-71.7333"/>
<polygon fill="black" stroke="black" points="215.57,-74.8264 222.866,-67.1439 212.372,-68.5998 215.57,-74.8264"/>
<text text-anchor="start" x="175" y="-117.011" font-family="Arial" font-weight="bold" font-size="11.00">Flow</text>
</g>
<!-- function&#45;&gt;io -->
<g id="edge2" class="edge"><title>function&#45;&gt;io</title>
<path fill="none" stroke="black" d="M210.132,-142.58C219.57,-125.767 230.509,-106.279 239.733,-89.8476"/>
<polygon fill="black" stroke="black" points="206.906,-141.176 205.063,-151.609 213.01,-144.602 206.906,-141.176"/>
<text text-anchor="start" x="246.34" y="-121.687" font-family="Arial" font-weight="bold" font-size="11.00">Flow</text>
<text text-anchor="start" x="228" y="-110.687" font-family="Arial" font-size="11.00">(backwards)</text>
</g>
</g>
</svg>
