<?xml version="1.0" encoding="UTF-8" standalone="no"?>
<!DOCTYPE svg PUBLIC "-//W3C//DTD SVG 1.1//EN"
 "http://www.w3.org/Graphics/SVG/1.1/DTD/svg11.dtd">
<!-- Generated by graphviz version 2.38.0 (20140413.2041)
 -->
<!-- Title: Webapp Pages: 1 -->
<svg width="412pt" height="470pt"
 viewBox="0.00 0.00 411.82 470.25" xmlns="http://www.w3.org/2000/svg" xmlns:xlink="http://www.w3.org/1999/xlink">
<g id="graph0" class="graph" transform="scale(1 1) rotate(0) translate(4 466.246)">
<title>Webapp</title>
<polygon fill="white" stroke="none" points="-4,4 -4,-466.246 407.823,-466.246 407.823,4 -4,4"/>
<text text-anchor="start" x="164.846" y="-443.246" font-family="Arial" font-weight="bold" font-size="20.00">Webapp</text>
<g id="clust1" class="cluster"><title>cluster_browser</title>
<polygon fill="none" stroke="#595959" stroke-dasharray="5,2" points="141.323,-303.852 141.323,-423.248 241.323,-423.248 241.323,-303.852 141.323,-303.852"/>
<text text-anchor="start" x="172.986" y="-412.248" font-family="Arial" font-style="italic" font-size="10.00" fill="#595959">Browser</text>
</g>
<g id="clust2" class="cluster"><title>cluster_amazonaws</title>
<polygon fill="none" stroke="#595959" stroke-dasharray="5,2" points="24.3231,-8 24.3231,-263.852 166.323,-263.852 166.323,-8 24.3231,-8"/>
<text text-anchor="start" x="64.664" y="-252.852" font-family="Arial" font-style="italic" font-size="10.00" fill="#595959">Amazon AWS</text>
</g>
<!-- client -->
<g id="node1" class="node"><title>client</title>
<ellipse fill="none" stroke="black" cx="191.323" cy="-353.8" rx="41.897" ry="41.897"/>
<text text-anchor="start" x="166.119" y="-350.6" font-family="Courier,monospace" font-weight="bold" font-size="14.00">Client</text>
</g>
<!-- server -->
<g id="node2" class="node"><title>server</title>
<ellipse fill="none" stroke="black" cx="95.3231" cy="-173.176" rx="63.353" ry="63.353"/>
<text text-anchor="start" x="53.3163" y="-169.976" font-family="Courier,monospace" font-weight="bold" font-size="14.00">Web Server</text>
</g>
<!-- client&#45;&gt;server -->
<g id="edge1" class="edge"><title>client&#45;&gt;server</title>
<path fill="none" stroke="black" d="M149.362,-352.597C105.913,-349.859 39.961,-338.081 7.7079,-293.852 -11.2792,-267.814 9.23557,-238.634 35.1685,-215.606"/>
<polygon fill="black" stroke="black" points="37.6185,-218.117 42.9738,-208.975 33.0865,-212.782 37.6185,-218.117"/>
<text text-anchor="start" x="8.32314" y="-280.252" font-family="Courier,monospace" font-weight="bold" font-size="12.00" fill="#3184e4">(1) </text>
<text text-anchor="start" x="37.1278" y="-280.252" font-family="Courier,monospace" font-weight="bold" font-size="12.00">Request /</text>
</g>
<!-- client&#45;&gt;server -->
<g id="edge3" class="edge"><title>client&#45;&gt;server</title>
<path fill="none" stroke="black" d="M166.93,-307.413C154.171,-283.671 138.447,-254.416 124.988,-229.372"/>
<polygon fill="black" stroke="black" points="163.847,-309.07 171.664,-316.222 170.013,-305.756 163.847,-309.07"/>
<text text-anchor="start" x="158.323" y="-285.252" font-family="Courier,monospace" font-weight="bold" font-size="12.00" fill="#3184e4">(3) </text>
<text text-anchor="start" x="187.128" y="-285.252" font-family="Courier,monospace" font-weight="bold" font-size="12.00">Response</text>
<text text-anchor="start" x="165.524" y="-274.852" font-family="Courier,monospace" font-size="10.00">User Profile</text>
</g>
<!-- analytics -->
<g id="node4" class="node"><title>analytics</title>
<polygon fill="none" stroke="black" stroke-width="2" points="403.823,-222.676 304.823,-222.676 304.823,-123.676 403.823,-123.676 403.823,-222.676"/>
<text text-anchor="start" x="329.619" y="-176.976" font-family="Courier,monospace" font-weight="bold" font-size="14.00">Google</text>
<text text-anchor="start" x="317.017" y="-162.976" font-family="Courier,monospace" font-weight="bold" font-size="14.00">Analytics</text>
</g>
<!-- client&#45;&gt;analytics -->
<g id="edge4" class="edge"><title>client&#45;&gt;analytics</title>
<path fill="none" stroke="black" d="M224.466,-327.826C236.879,-317.831 250.764,-305.852 262.323,-293.852 280.941,-274.522 299.385,-251.507 314.816,-230.847"/>
<polygon fill="black" stroke="black" points="317.665,-232.881 320.795,-222.759 312.036,-228.72 317.665,-232.881"/>
<text text-anchor="start" x="302.126" y="-285.252" font-family="Courier,monospace" font-weight="bold" font-size="12.00" fill="#3184e4">(4) </text>
<text text-anchor="start" x="330.931" y="-285.252" font-family="Courier,monospace" font-weight="bold" font-size="12.00">Log</text>
<text text-anchor="start" x="282.323" y="-274.852" font-family="Courier,monospace" font-size="10.00">Page Navigation</text>
</g>
<!-- logs -->
<g id="node3" class="node"><title>logs</title>
<text text-anchor="start" x="88.0204" y="-30.8" font-family="Courier,monospace" font-weight="bold" font-size="14.00">Logs</text>
<polyline fill="none" stroke="black" points="82.8231,-22 125.823,-22 "/>
<polyline fill="none" stroke="black" points="125.823,-46 82.8231,-46 "/>
</g>
<!-- server&#45;&gt;logs -->
<g id="edge2" class="edge"><title>server&#45;&gt;logs</title>
<path fill="none" stroke="black" d="M99.4018,-110.01C100.495,-93.341 101.623,-76.1618 102.522,-62.4568"/>
<polygon fill="black" stroke="black" points="106.027,-62.4943 103.189,-52.2866 99.0417,-62.036 106.027,-62.4943"/>
<text text-anchor="start" x="102.323" y="-83.4" font-family="Courier,monospace" font-weight="bold" font-size="12.00" fill="#3184e4">(2) </text>
<text text-anchor="start" x="131.128" y="-83.4" font-family="Courier,monospace" font-weight="bold" font-size="12.00">Log</text>
<text text-anchor="start" x="106.524" y="-73" font-family="Courier,monospace" font-size="10.00">User IP</text>
</g>
</g>
</svg>
