<?xml version="1.0" encoding="UTF-8" standalone="no"?>
<!DOCTYPE svg PUBLIC "-//W3C//DTD SVG 1.1//EN"
 "http://www.w3.org/Graphics/SVG/1.1/DTD/svg11.dtd">
<!-- Generated by graphviz version 2.38.0 (20140413.2041)
 -->
<!-- Title: Webapp Pages: 1 -->
<svg width="294pt" height="410pt"
 viewBox="0.00 0.00 293.92 409.64" xmlns="http://www.w3.org/2000/svg" xmlns:xlink="http://www.w3.org/1999/xlink">
<g id="graph0" class="graph" transform="scale(1 1) rotate(0) translate(4 405.636)">
<title>Webapp</title>
<polygon fill="white" stroke="none" points="-4,4 -4,-405.636 289.921,-405.636 289.921,4 -4,4"/>
<g id="clust2" class="cluster"><title>cluster_aws</title>
<polygon fill="none" stroke="#4d4d4d" stroke-dasharray="5,2" points="8,-8 8,-250.19 126,-250.19 126,-8 8,-8"/>
<text text-anchor="start" x="38.3721" y="-239.19" font-family="Times,serif" font-weight="bold" font-size="10.00" fill="#4d4d4d">Amazon AWS</text>
</g>
<g id="clust1" class="cluster"><title>cluster_browser</title>
<polygon fill="none" stroke="#4d4d4d" stroke-dasharray="5,2" points="82,-296.19 82,-393.636 162,-393.636 162,-296.19 82,-296.19"/>
<text text-anchor="start" x="105.059" y="-382.636" font-family="Times,serif" font-weight="bold" font-size="10.00" fill="#4d4d4d">Browser</text>
</g>
<!-- client -->
<g id="node1" class="node"><title>client</title>
<ellipse fill="none" stroke="black" cx="122" cy="-335.913" rx="31.948" ry="31.948"/>
<text text-anchor="start" x="104.89" y="-332.713" font-family="Times,serif" font-weight="bold" font-size="14.00">Client</text>
</g>
<!-- server -->
<g id="node2" class="node"><title>server</title>
<ellipse fill="none" stroke="black" cx="67" cy="-172.802" rx="51.2759" ry="51.2759"/>
<text text-anchor="start" x="34.3242" y="-169.602" font-family="Times,serif" font-weight="bold" font-size="14.00">Web Server</text>
</g>
<!-- client&#45;&gt;server -->
<g id="edge1" class="edge"><title>client&#45;&gt;server</title>
<path fill="none" stroke="black" d="M92.5719,-323.964C76.1244,-316.149 57.0639,-303.86 47.5068,-286.19 38.2009,-268.983 38.979,-248.322 43.4445,-229.434"/>
<polygon fill="black" stroke="black" points="46.8322,-230.314 46.0819,-219.746 40.078,-228.475 46.8322,-230.314"/>
<text text-anchor="start" x="48" y="-268.99" font-family="Times,serif" font-weight="bold" font-size="14.00">Request /</text>
</g>
<!-- client&#45;&gt;server -->
<g id="edge3" class="edge"><title>client&#45;&gt;server</title>
<path fill="none" stroke="black" d="M111.354,-295.12C107.953,-283.174 104.022,-270.086 100,-258.19 95.8687,-245.97 90.9983,-232.92 86.286,-220.826"/>
<polygon fill="black" stroke="black" points="108.008,-296.15 114.076,-304.835 114.748,-294.261 108.008,-296.15"/>
<text text-anchor="start" x="115.805" y="-275.99" font-family="Times,serif" font-weight="bold" font-size="14.00">Response</text>
<text text-anchor="start" x="109" y="-261.99" font-family="Times,serif" font-size="14.00">User Profile</text>
</g>
<!-- analytics -->
<g id="node4" class="node"><title>analytics</title>
<polygon fill="none" stroke="black" stroke-width="2" points="268.604,-229.406 155.396,-229.406 155.396,-116.198 268.604,-116.198 268.604,-229.406"/>
<text text-anchor="start" x="163.198" y="-169.602" font-family="Times,serif" font-weight="bold" font-size="14.00">Google Analytics</text>
</g>
<!-- client&#45;&gt;analytics -->
<g id="edge4" class="edge"><title>client&#45;&gt;analytics</title>
<path fill="none" stroke="black" d="M148.512,-317.964C159.674,-309.617 171.921,-298.663 180,-286.19 189.087,-272.159 195.64,-255.517 200.348,-239.398"/>
<polygon fill="black" stroke="black" points="203.805,-240.026 203.048,-229.458 197.049,-238.191 203.805,-240.026"/>
<text text-anchor="start" x="228.185" y="-275.99" font-family="Times,serif" font-weight="bold" font-size="14.00">Log</text>
<text text-anchor="start" x="193" y="-261.99" font-family="Times,serif" font-size="14.00">Page Navigation</text>
</g>
<!-- logs -->
<g id="node3" class="node"><title>logs</title>
<text text-anchor="start" x="53" y="-30.8" font-family="Times,serif" font-weight="bold" font-size="14.00">Logs</text>
<polyline fill="none" stroke="black" points="48,-22 86,-22 "/>
<polyline fill="none" stroke="black" points="86,-46 48,-46 "/>
</g>
<!-- server&#45;&gt;logs -->
<g id="edge2" class="edge"><title>server&#45;&gt;logs</title>
<path fill="none" stroke="black" d="M67,-121.251C67,-101.271 67,-79.1067 67,-62.2497"/>
<polygon fill="black" stroke="black" points="70.5001,-62.0149 67,-52.015 63.5001,-62.015 70.5001,-62.0149"/>
<text text-anchor="start" x="76.9155" y="-87.8" font-family="Times,serif" font-weight="bold" font-size="14.00">Log</text>
<text text-anchor="start" x="67" y="-73.8" font-family="Times,serif" font-size="14.00">User IP</text>
</g>
</g>
</svg>
