<?xml version="1.0" encoding="UTF-8" standalone="no"?>
<!DOCTYPE svg PUBLIC "-//W3C//DTD SVG 1.1//EN"
 "http://www.w3.org/Graphics/SVG/1.1/DTD/svg11.dtd">
<!-- Generated by graphviz version 2.38.0 (20140413.2041)
 -->
<!-- Title: Webapp Pages: 1 -->
<svg width="323pt" height="420pt"
 viewBox="0.00 0.00 322.74 420.22" xmlns="http://www.w3.org/2000/svg" xmlns:xlink="http://www.w3.org/1999/xlink">
<g id="graph0" class="graph" transform="scale(1 1) rotate(0) translate(4 416.216)">
<title>Webapp</title>
<polygon fill="white" stroke="none" points="-4,4 -4,-416.216 318.737,-416.216 318.737,4 -4,4"/>
<g id="clust2" class="cluster"><title>cluster_aws</title>
<polygon fill="none" stroke="#4d4d4d" stroke-dasharray="5,2" points="8,-8 8,-258.783 138,-258.783 138,-8 8,-8"/>
<text text-anchor="start" x="42.3359" y="-247.783" font-family="Helvetica,sans-Serif" font-weight="bold" font-size="10.00" fill="#4d4d4d">Amazon AWS</text>
</g>
<g id="clust1" class="cluster"><title>cluster_browser</title>
<polygon fill="none" stroke="#4d4d4d" stroke-dasharray="5,2" points="93,-304.783 93,-404.216 175,-404.216 175,-304.783 93,-304.783"/>
<text text-anchor="start" x="115.663" y="-393.216" font-family="Helvetica,sans-Serif" font-weight="bold" font-size="10.00" fill="#4d4d4d">Browser</text>
</g>
<!-- client -->
<g id="node1" class="node"><title>client</title>
<ellipse fill="none" stroke="black" cx="134" cy="-345.5" rx="32.9342" ry="32.9342"/>
<text text-anchor="start" x="116.104" y="-342.3" font-family="Helvetica,sans-Serif" font-weight="bold" font-size="14.00">Client</text>
</g>
<!-- server -->
<g id="node2" class="node"><title>server</title>
<ellipse fill="none" stroke="black" cx="73" cy="-176.145" rx="56.7776" ry="56.7776"/>
<text text-anchor="start" x="36.168" y="-172.945" font-family="Helvetica,sans-Serif" font-weight="bold" font-size="14.00">Web Server</text>
</g>
<!-- client&#45;&gt;server -->
<g id="edge1" class="edge"><title>client&#45;&gt;server</title>
<path fill="none" stroke="black" d="M102.954,-334.451C84.6181,-326.732 62.9298,-314.066 52.0762,-294.783 42.415,-277.619 42.7988,-257.005 47.1052,-237.86"/>
<polygon fill="black" stroke="black" points="50.5375,-238.569 49.6824,-228.009 43.7654,-236.797 50.5375,-238.569"/>
<text text-anchor="start" x="53" y="-277.583" font-family="Helvetica,sans-Serif" font-weight="bold" font-size="14.00">Request /</text>
</g>
<!-- client&#45;&gt;server -->
<g id="edge3" class="edge"><title>client&#45;&gt;server</title>
<path fill="none" stroke="black" d="M123.584,-303.775C120.212,-291.756 116.238,-278.647 112,-266.783 107.432,-253.997 101.911,-240.449 96.4777,-227.863"/>
<polygon fill="black" stroke="black" points="120.248,-304.844 126.267,-313.562 126.998,-302.993 120.248,-304.844"/>
<text text-anchor="start" x="126.045" y="-284.583" font-family="Helvetica,sans-Serif" font-weight="bold" font-size="14.00">Response</text>
<text text-anchor="start" x="121" y="-270.583" font-family="Helvetica,sans-Serif" font-size="14.00">User Profile</text>
</g>
<!-- analytics -->
<g id="node4" class="node"><title>analytics</title>
<polygon fill="none" stroke="black" stroke-width="2" points="290.289,-236.434 169.711,-236.434 169.711,-115.855 290.289,-115.855 290.289,-236.434"/>
<text text-anchor="start" x="177.855" y="-172.945" font-family="Helvetica,sans-Serif" font-weight="bold" font-size="14.00">Google Analytics</text>
</g>
<!-- client&#45;&gt;analytics -->
<g id="edge4" class="edge"><title>client&#45;&gt;analytics</title>
<path fill="none" stroke="black" d="M162.039,-328.559C174.716,-320.042 188.869,-308.48 198,-294.783 207.618,-280.356 214.357,-263.115 219.075,-246.34"/>
<polygon fill="black" stroke="black" points="222.493,-247.1 221.626,-236.541 215.719,-245.337 222.493,-247.1"/>
<text text-anchor="start" x="251.689" y="-284.583" font-family="Helvetica,sans-Serif" font-weight="bold" font-size="14.00">Log</text>
<text text-anchor="start" x="212" y="-270.583" font-family="Helvetica,sans-Serif" font-size="14.00">Page Navigation</text>
</g>
<!-- logs -->
<g id="node3" class="node"><title>logs</title>
<text text-anchor="start" x="57.8208" y="-30.8" font-family="Helvetica,sans-Serif" font-weight="bold" font-size="14.00">Logs</text>
<polyline fill="none" stroke="black" points="53,-22 93,-22 "/>
<polyline fill="none" stroke="black" points="93,-46 53,-46 "/>
</g>
<!-- server&#45;&gt;logs -->
<g id="edge2" class="edge"><title>server&#45;&gt;logs</title>
<path fill="none" stroke="black" d="M73,-119.353C73,-99.7549 73,-78.6003 73,-62.3786"/>
<polygon fill="black" stroke="black" points="76.5001,-62.0159 73,-52.016 69.5001,-62.016 76.5001,-62.0159"/>
<text text-anchor="start" x="84.6587" y="-87.8" font-family="Helvetica,sans-Serif" font-weight="bold" font-size="14.00">Log</text>
<text text-anchor="start" x="73" y="-73.8" font-family="Helvetica,sans-Serif" font-size="14.00">User IP</text>
</g>
</g>
</svg>
