<?xml version="1.0" encoding="UTF-8" standalone="no"?>
<!DOCTYPE svg PUBLIC "-//W3C//DTD SVG 1.1//EN"
 "http://www.w3.org/Graphics/SVG/1.1/DTD/svg11.dtd">
<!-- Generated by graphviz version 2.38.0 (20140413.2041)
 -->
<!-- Title: Webapp Pages: 1 -->
<svg width="364pt" height="450pt"
 viewBox="0.00 0.00 364.30 450.40" xmlns="http://www.w3.org/2000/svg" xmlns:xlink="http://www.w3.org/1999/xlink">
<g id="graph0" class="graph" transform="scale(1 1) rotate(0) translate(4 446.4)">
<title>Webapp</title>
<polygon fill="white" stroke="none" points="-4,4 -4,-446.4 360.298,-446.4 360.298,4 -4,4"/>
<text text-anchor="start" x="141.084" y="-423.4" font-family="Arial" font-weight="bold" font-size="20.00">Webapp</text>
<g id="clust1" class="cluster"><title>cluster_browser</title>
<polygon fill="none" stroke="#595959" stroke-dasharray="5,2" points="124.298,-298.185 124.298,-403.402 210.298,-403.402 210.298,-298.185 124.298,-298.185"/>
<text text-anchor="start" x="148.961" y="-392.402" font-family="Arial" font-style="italic" font-size="10.00" fill="#595959">Browser</text>
</g>
<g id="clust2" class="cluster"><title>cluster_aws</title>
<polygon fill="none" stroke="#595959" stroke-dasharray="5,2" points="75.2982,-8 75.2982,-258.185 211.298,-258.185 211.298,-8 75.2982,-8"/>
<text text-anchor="start" x="112.639" y="-247.185" font-family="Arial" font-style="italic" font-size="10.00" fill="#595959">Amazon AWS</text>
</g>
<!-- client -->
<g id="node1" class="node"><title>client</title>
<ellipse fill="none" stroke="black" cx="167.298" cy="-341.044" rx="34.7182" ry="34.7182"/>
<text text-anchor="start" x="149.402" y="-338.893" font-family="Arial" font-weight="bold" font-size="14.00">Client</text>
</g>
<!-- server -->
<g id="node2" class="node"><title>server</title>
<ellipse fill="none" stroke="black" cx="143.298" cy="-170.343" rx="60.1865" ry="60.1865"/>
<text text-anchor="start" x="106.47" y="-168.192" font-family="Arial" font-weight="bold" font-size="14.00">Web Server</text>
</g>
<!-- client&#45;&gt;server -->
<g id="edge1" class="edge"><title>client&#45;&gt;server</title>
<path fill="none" stroke="black" d="M132.239,-339.791C94.5448,-337.407 36.2297,-327.148 7.93494,-288.185 -19.1714,-250.859 30.7957,-217.498 77.4951,-196.076"/>
<polygon fill="black" stroke="black" points="79.0523,-199.214 86.7676,-191.953 76.2082,-192.817 79.0523,-199.214"/>
<text text-anchor="start" x="8.29822" y="-275.484" font-family="Arial" font-weight="bold" font-size="12.00" fill="#3184e4">(1) </text>
<text text-anchor="start" x="26.2982" y="-275.484" font-family="Arial" font-weight="bold" font-size="12.00">Request /</text>
</g>
<!-- client&#45;&gt;server -->
<g id="edge3" class="edge"><title>client&#45;&gt;server</title>
<path fill="none" stroke="black" d="M156.033,-297.404C155.38,-294.295 154.78,-291.199 154.263,-288.185 151.076,-269.61 148.761,-249.204 147.103,-230.715"/>
<polygon fill="black" stroke="black" points="152.647,-298.299 158.261,-307.284 159.475,-296.759 152.647,-298.299"/>
<text text-anchor="start" x="154.298" y="-279.585" font-family="Arial" font-weight="bold" font-size="12.00" fill="#3184e4">(3) </text>
<text text-anchor="start" x="172.298" y="-279.585" font-family="Arial" font-weight="bold" font-size="12.00">Response</text>
<text text-anchor="start" x="164.198" y="-269.185" font-family="Arial" font-size="10.00">User Profile</text>
</g>
<!-- analytics -->
<g id="node4" class="node"><title>analytics</title>
<polygon fill="none" stroke="black" stroke-width="2" points="356.298,-210.343 276.298,-210.343 276.298,-130.343 356.298,-130.343 356.298,-210.343"/>
<text text-anchor="start" x="293.726" y="-174.143" font-family="Arial" font-weight="bold" font-size="14.00">Google</text>
<text text-anchor="start" x="288.288" y="-160.143" font-family="Arial" font-weight="bold" font-size="14.00">Analytics</text>
</g>
<!-- client&#45;&gt;analytics -->
<g id="edge4" class="edge"><title>client&#45;&gt;analytics</title>
<path fill="none" stroke="black" d="M196.993,-322.619C211.093,-313.472 227.595,-301.419 240.298,-288.185 259.899,-267.764 277.455,-241.61 290.743,-219.226"/>
<polygon fill="black" stroke="black" points="293.797,-220.937 295.803,-210.534 287.747,-217.415 293.797,-220.937"/>
<text text-anchor="start" x="275.979" y="-279.585" font-family="Arial" font-weight="bold" font-size="12.00" fill="#3184e4">(4) </text>
<text text-anchor="start" x="293.979" y="-279.585" font-family="Arial" font-weight="bold" font-size="12.00">Log</text>
<text text-anchor="start" x="258.298" y="-269.185" font-family="Arial" font-size="10.00">Page Navigation</text>
</g>
<!-- logs -->
<g id="node3" class="node"><title>logs</title>
<text text-anchor="start" x="140.119" y="-31.8" font-family="Arial" font-weight="bold" font-size="14.00">Logs</text>
<polyline fill="none" stroke="black" points="135.298,-21 175.298,-21 "/>
<polyline fill="none" stroke="black" points="175.298,-47 135.298,-47 "/>
</g>
<!-- server&#45;&gt;logs -->
<g id="edge2" class="edge"><title>server&#45;&gt;logs</title>
<path fill="none" stroke="black" d="M148.597,-110.027C150.083,-93.3881 151.627,-76.0972 152.858,-62.3138"/>
<polygon fill="black" stroke="black" points="156.368,-62.3631 153.772,-52.0913 149.396,-61.7403 156.368,-62.3631"/>
<text text-anchor="start" x="152.298" y="-83.4" font-family="Arial" font-weight="bold" font-size="12.00" fill="#3184e4">(2) </text>
<text text-anchor="start" x="170.298" y="-83.4" font-family="Arial" font-weight="bold" font-size="12.00">Log</text>
<text text-anchor="start" x="154.639" y="-73" font-family="Arial" font-size="10.00">User IP</text>
</g>
</g>
</svg>
