<?xml version="1.0" encoding="UTF-8" standalone="no"?>
<!DOCTYPE svg PUBLIC "-//W3C//DTD SVG 1.1//EN"
 "http://www.w3.org/Graphics/SVG/1.1/DTD/svg11.dtd">
<!-- Generated by graphviz version 2.38.0 (20140413.2041)
 -->
<!-- Title: Webapp Pages: 1 -->
<svg width="333pt" height="450pt"
 viewBox="0.00 0.00 333.01 450.40" xmlns="http://www.w3.org/2000/svg" xmlns:xlink="http://www.w3.org/1999/xlink">
<g id="graph0" class="graph" transform="scale(1 1) rotate(0) translate(4 446.4)">
<title>Webapp</title>
<polygon fill="white" stroke="none" points="-4,4 -4,-446.4 329.01,-446.4 329.01,4 -4,4"/>
<text text-anchor="start" x="125.44" y="-423.4" font-family="Arial" font-weight="bold" font-size="20.00">Webapp</text>
<g id="clust1" class="cluster"><title>cluster_browser</title>
<polygon fill="none" stroke="#595959" stroke-dasharray="5,2" points="115,-298.185 115,-403.402 201,-403.402 201,-298.185 115,-298.185"/>
<text text-anchor="start" x="139.663" y="-392.402" font-family="Arial" font-style="italic" font-size="10.00" fill="#595959">Browser</text>
</g>
<g id="clust2" class="cluster"><title>cluster_aws</title>
<polygon fill="none" stroke="#595959" stroke-dasharray="5,2" points="8,-8 8,-258.185 144,-258.185 144,-8 8,-8"/>
<text text-anchor="start" x="45.3408" y="-247.185" font-family="Arial" font-style="italic" font-size="10.00" fill="#595959">Amazon AWS</text>
</g>
<!-- client -->
<g id="node1" class="node"><title>client</title>
<ellipse fill="none" stroke="black" cx="158" cy="-341.044" rx="34.7182" ry="34.7182"/>
<text text-anchor="start" x="140.104" y="-338.893" font-family="Arial" font-weight="bold" font-size="14.00">Client</text>
</g>
<!-- server -->
<g id="node2" class="node"><title>server</title>
<ellipse fill="none" stroke="black" cx="76" cy="-170.343" rx="60.1865" ry="60.1865"/>
<text text-anchor="start" x="39.1714" y="-168.192" font-family="Arial" font-weight="bold" font-size="14.00">Web Server</text>
</g>
<!-- client&#45;&gt;server -->
<g id="edge1" class="edge"><title>client&#45;&gt;server</title>
<path fill="none" stroke="black" d="M123.059,-338.065C89.5097,-334.089 40.5091,-322.371 16.6367,-288.185 2.08217,-267.343 11.5388,-242.438 26.8205,-220.986"/>
<polygon fill="black" stroke="black" points="29.6634,-223.03 32.9246,-212.949 24.0889,-218.796 29.6634,-223.03"/>
<text text-anchor="start" x="17" y="-275.484" font-family="Arial" font-weight="bold" font-size="12.00">Request /</text>
</g>
<!-- client&#45;&gt;server -->
<g id="edge3" class="edge"><title>client&#45;&gt;server</title>
<path fill="none" stroke="black" d="M138.654,-300.242C127.716,-277.74 113.896,-249.306 102.019,-224.873"/>
<polygon fill="black" stroke="black" points="135.631,-302.03 143.15,-309.493 141.927,-298.97 135.631,-302.03"/>
<text text-anchor="start" x="132" y="-279.585" font-family="Arial" font-weight="bold" font-size="12.00">Response</text>
<text text-anchor="start" x="132.899" y="-269.185" font-family="Arial" font-size="10.00">User Profile</text>
</g>
<!-- analytics -->
<g id="node4" class="node"><title>analytics</title>
<polygon fill="none" stroke="black" stroke-width="2" points="325.021,-206.364 252.979,-206.364 252.979,-134.323 325.021,-134.323 325.021,-206.364"/>
<text text-anchor="start" x="266.428" y="-174.143" font-family="Arial" font-weight="bold" font-size="14.00">Google</text>
<text text-anchor="start" x="260.99" y="-160.143" font-family="Arial" font-weight="bold" font-size="14.00">Analytics</text>
</g>
<!-- client&#45;&gt;analytics -->
<g id="edge4" class="edge"><title>client&#45;&gt;analytics</title>
<path fill="none" stroke="black" d="M181.196,-314.881C188.653,-306.533 196.835,-297.095 204,-288.185 223.027,-264.524 243.063,-237.118 258.9,-214.798"/>
<polygon fill="black" stroke="black" points="261.843,-216.698 264.754,-206.51 256.126,-212.659 261.843,-216.698"/>
<text text-anchor="start" x="248.681" y="-279.585" font-family="Arial" font-weight="bold" font-size="12.00">Log</text>
<text text-anchor="start" x="222" y="-269.185" font-family="Arial" font-size="10.00">Page Navigation</text>
</g>
<!-- logs -->
<g id="node3" class="node"><title>logs</title>
<text text-anchor="start" x="72.8208" y="-31.8" font-family="Arial" font-weight="bold" font-size="14.00">Logs</text>
<polyline fill="none" stroke="black" points="68,-21 108,-21 "/>
<polyline fill="none" stroke="black" points="108,-47 68,-47 "/>
</g>
<!-- server&#45;&gt;logs -->
<g id="edge2" class="edge"><title>server&#45;&gt;logs</title>
<path fill="none" stroke="black" d="M81.2983,-110.027C82.7846,-93.3881 84.3291,-76.0972 85.5602,-62.3138"/>
<polygon fill="black" stroke="black" points="89.0697,-62.3631 86.4733,-52.0913 82.0974,-61.7403 89.0697,-62.3631"/>
<text text-anchor="start" x="91.6592" y="-83.4" font-family="Arial" font-weight="bold" font-size="12.00">Log</text>
<text text-anchor="start" x="85" y="-73" font-family="Arial" font-size="10.00">User IP</text>
</g>
</g>
</svg>
