<?xml version="1.0" encoding="UTF-8" standalone="no"?>
<!DOCTYPE svg PUBLIC "-//W3C//DTD SVG 1.1//EN"
 "http://www.w3.org/Graphics/SVG/1.1/DTD/svg11.dtd">
<!-- Generated by graphviz version 2.38.0 (20140413.2041)
 -->
<!-- Title: Webapp Pages: 1 -->
<svg width="410pt" height="470pt"
 viewBox="0.00 0.00 409.97 470.25" xmlns="http://www.w3.org/2000/svg" xmlns:xlink="http://www.w3.org/1999/xlink">
<g id="graph0" class="graph" transform="scale(1 1) rotate(0) translate(4 466.246)">
<title>Webapp</title>
<polygon fill="white" stroke="none" points="-4,4 -4,-466.246 405.972,-466.246 405.972,4 -4,4"/>
<text text-anchor="start" x="163.92" y="-443.246" font-family="Arial" font-weight="bold" font-size="20.00">Webapp</text>
<g id="clust1" class="cluster"><title>cluster_browser</title>
<polygon fill="none" stroke="#595959" stroke-dasharray="5,2" points="139.472,-8 139.472,-127.396 239.472,-127.396 239.472,-8 139.472,-8"/>
<text text-anchor="start" x="171.134" y="-116.396" font-family="Arial" font-style="italic" font-size="10.00" fill="#595959">Browser</text>
</g>
<g id="clust2" class="cluster"><title>cluster_amazonaws</title>
<polygon fill="none" stroke="#595959" stroke-dasharray="5,2" points="22.4718,-167.396 22.4718,-423.248 164.472,-423.248 164.472,-167.396 22.4718,-167.396"/>
<text text-anchor="start" x="62.8126" y="-412.248" font-family="Arial" font-style="italic" font-size="10.00" fill="#595959">Amazon AWS</text>
</g>
<!-- client -->
<g id="node1" class="node"><title>client</title>
<ellipse fill="none" stroke="black" cx="189.472" cy="-57.9485" rx="41.897" ry="41.897"/>
<text text-anchor="start" x="164.268" y="-54.7485" font-family="Courier,monospace" font-weight="bold" font-size="14.00">Client</text>
</g>
<!-- server -->
<g id="node2" class="node"><title>server</title>
<ellipse fill="none" stroke="black" cx="93.4718" cy="-238.572" rx="63.353" ry="63.353"/>
<text text-anchor="start" x="51.4649" y="-235.372" font-family="Courier,monospace" font-weight="bold" font-size="14.00">Web Server</text>
</g>
<!-- server&#45;&gt;client -->
<g id="edge1" class="edge"><title>server&#45;&gt;client</title>
<path fill="none" stroke="black" d="M38.7491,-206.273C12.0359,-186.823 -11.0623,-160.767 5.85655,-135.396 34.9435,-91.7784 94.114,-73.0083 137.453,-64.9548"/>
<polygon fill="black" stroke="black" points="138.286,-68.363 147.548,-63.2173 137.099,-61.4645 138.286,-68.363"/>
<text text-anchor="start" x="6.47178" y="-143.796" font-family="Courier,monospace" font-weight="bold" font-size="12.00" fill="#3184e4">(1) </text>
<text text-anchor="start" x="35.2765" y="-143.796" font-family="Courier,monospace" font-weight="bold" font-size="12.00">Request /</text>
</g>
<!-- server&#45;&gt;client -->
<g id="edge3" class="edge"><title>server&#45;&gt;client</title>
<path fill="none" stroke="black" d="M127.976,-173.372C142.103,-147.086 157.928,-117.641 169.986,-95.2041"/>
<polygon fill="black" stroke="black" points="124.709,-172.056 123.058,-182.522 130.875,-175.37 124.709,-172.056"/>
<text text-anchor="start" x="147.472" y="-148.796" font-family="Courier,monospace" font-weight="bold" font-size="12.00" fill="#3184e4">(3) </text>
<text text-anchor="start" x="176.276" y="-148.796" font-family="Courier,monospace" font-weight="bold" font-size="12.00">Response</text>
<text text-anchor="start" x="154.673" y="-138.396" font-family="Courier,monospace" font-size="10.00">User Profile</text>
</g>
<!-- logs -->
<g id="node3" class="node"><title>logs</title>
<text text-anchor="start" x="86.169" y="-374.548" font-family="Courier,monospace" font-weight="bold" font-size="14.00">Logs</text>
<polyline fill="none" stroke="black" points="80.9718,-365.748 123.972,-365.748 "/>
<polyline fill="none" stroke="black" points="123.972,-389.748 80.9718,-389.748 "/>
</g>
<!-- logs&#45;&gt;server -->
<g id="edge2" class="edge"><title>logs&#45;&gt;server</title>
<path fill="none" stroke="black" d="M101.35,-359.652C100.547,-347.405 99.4043,-329.994 98.2381,-312.219"/>
<polygon fill="black" stroke="black" points="101.698,-311.497 97.5511,-301.748 94.7134,-311.956 101.698,-311.497"/>
<text text-anchor="start" x="100.472" y="-333.148" font-family="Courier,monospace" font-weight="bold" font-size="12.00" fill="#3184e4">(2) </text>
<text text-anchor="start" x="129.276" y="-333.148" font-family="Courier,monospace" font-weight="bold" font-size="12.00">Log</text>
<text text-anchor="start" x="104.672" y="-322.748" font-family="Courier,monospace" font-size="10.00">User IP</text>
</g>
<!-- analytics -->
<g id="node4" class="node"><title>analytics</title>
<polygon fill="none" stroke="black" stroke-width="2" points="401.972,-288.072 302.972,-288.072 302.972,-189.072 401.972,-189.072 401.972,-288.072"/>
<text text-anchor="start" x="327.768" y="-242.372" font-family="Courier,monospace" font-weight="bold" font-size="14.00">Google</text>
<text text-anchor="start" x="315.166" y="-228.372" font-family="Courier,monospace" font-weight="bold" font-size="14.00">Analytics</text>
</g>
<!-- analytics&#45;&gt;client -->
<g id="edge4" class="edge"><title>analytics&#45;&gt;client</title>
<path fill="none" stroke="black" d="M307.931,-188.763C281.593,-159.9 248.722,-123.878 224.292,-97.1064"/>
<polygon fill="black" stroke="black" points="226.645,-94.4922 217.319,-89.4647 221.474,-99.2107 226.645,-94.4922"/>
<text text-anchor="start" x="296.275" y="-148.796" font-family="Courier,monospace" font-weight="bold" font-size="12.00" fill="#3184e4">(4) </text>
<text text-anchor="start" x="325.08" y="-148.796" font-family="Courier,monospace" font-weight="bold" font-size="12.00">Log</text>
<text text-anchor="start" x="276.472" y="-138.396" font-family="Courier,monospace" font-size="10.00">Page Navigation</text>
</g>
</g>
</svg>
