<?xml version="1.0" encoding="UTF-8" standalone="no"?>
<!DOCTYPE svg PUBLIC "-//W3C//DTD SVG 1.1//EN"
 "http://www.w3.org/Graphics/SVG/1.1/DTD/svg11.dtd">
<!-- Generated by graphviz version 2.38.0 (20140413.2041)
 -->
<!-- Title: Webapp Pages: 1 -->
<svg width="349pt" height="408pt"
 viewBox="0.00 0.00 348.97 407.92" xmlns="http://www.w3.org/2000/svg" xmlns:xlink="http://www.w3.org/1999/xlink">
<g id="graph0" class="graph" transform="scale(1 1) rotate(0) translate(4 403.92)">
<title>Webapp</title>
<polygon fill="white" stroke="none" points="-4,4 -4,-403.92 344.968,-403.92 344.968,4 -4,4"/>
<text text-anchor="start" x="133.419" y="-380.92" font-family="Arial" font-weight="bold" font-size="20.00">Webapp</text>
<g id="clust1" class="cluster"><title>cluster_browser</title>
<polygon fill="none" stroke="#4d4d4d" stroke-dasharray="5,2" points="123,-271.559 123,-360.922 193,-360.922 193,-271.559 123,-271.559"/>
<text text-anchor="start" x="139.663" y="-349.922" font-family="Arial" font-weight="bold" font-size="10.00" fill="#4d4d4d">Browser</text>
</g>
<g id="clust2" class="cluster"><title>cluster_aws</title>
<polygon fill="none" stroke="#4d4d4d" stroke-dasharray="5,2" points="8,-8 8,-231.559 133,-231.559 133,-8 8,-8"/>
<text text-anchor="start" x="39.8408" y="-220.559" font-family="Arial" font-weight="bold" font-size="10.00" fill="#4d4d4d">Amazon AWS</text>
</g>
<!-- client -->
<g id="node1" class="node"><title>client</title>
<ellipse fill="none" stroke="black" cx="158" cy="-306.491" rx="26.8647" ry="26.8647"/>
<text text-anchor="start" x="143.938" y="-305.015" font-family="Arial" font-weight="bold" font-size="11.00">Client</text>
</g>
<!-- server -->
<g id="node2" class="node"><title>server</title>
<ellipse fill="none" stroke="black" cx="80" cy="-158.968" rx="45.1835" ry="45.1835"/>
<text text-anchor="start" x="51.0632" y="-157.492" font-family="Arial" font-weight="bold" font-size="11.00">Web Server</text>
</g>
<!-- client&#45;&gt;server -->
<g id="edge1" class="edge"><title>client&#45;&gt;server</title>
<path fill="none" stroke="black" d="M131.028,-305.595C98.8079,-304.086 46.1057,-296.082 20.917,-261.559 5.66813,-240.659 20.0205,-215.539 38.3914,-195.507"/>
<polygon fill="black" stroke="black" points="41.1269,-197.714 45.5756,-188.098 36.1015,-192.841 41.1269,-197.714"/>
<text text-anchor="start" x="21" y="-249.083" font-family="Arial" font-weight="bold" font-size="11.00">Request /</text>
</g>
<!-- client&#45;&gt;server -->
<g id="edge3" class="edge"><title>client&#45;&gt;server</title>
<path fill="none" stroke="black" d="M140.866,-273.524C129.117,-251.604 113.456,-222.387 100.963,-199.078"/>
<polygon fill="black" stroke="black" points="137.832,-275.272 145.641,-282.432 144.001,-271.965 137.832,-275.272"/>
<text text-anchor="start" x="136.964" y="-253.759" font-family="Arial" font-weight="bold" font-size="11.00">Response</text>
<text text-anchor="start" x="133" y="-242.759" font-family="Arial" font-size="11.00">User Profile</text>
</g>
<!-- analytics -->
<g id="node4" class="node"><title>analytics</title>
<polygon fill="none" stroke="black" stroke-width="2" points="340.936,-207.904 243.064,-207.904 243.064,-110.032 340.936,-110.032 340.936,-207.904"/>
<text text-anchor="start" x="251.032" y="-157.492" font-family="Arial" font-weight="bold" font-size="11.00">Google Analytics</text>
</g>
<!-- client&#45;&gt;analytics -->
<g id="edge4" class="edge"><title>client&#45;&gt;analytics</title>
<path fill="none" stroke="black" d="M178.617,-288.661C187.907,-280.758 198.826,-271.012 208,-261.559 221.776,-247.363 235.825,-231.173 248.392,-215.953"/>
<polygon fill="black" stroke="black" points="251.196,-218.053 254.82,-208.097 245.778,-213.62 251.196,-218.053"/>
<text text-anchor="start" x="259.185" y="-253.759" font-family="Arial" font-weight="bold" font-size="11.00">Log</text>
<text text-anchor="start" x="228" y="-242.759" font-family="Arial" font-size="11.00">Page Navigation</text>
</g>
<!-- logs -->
<g id="node3" class="node"><title>logs</title>
<text text-anchor="start" x="76.5735" y="-32.2" font-family="Arial" font-weight="bold" font-size="11.00">Logs</text>
<polyline fill="none" stroke="black" points="71.5,-23 104.5,-23 "/>
<polyline fill="none" stroke="black" points="104.5,-45 71.5,-45 "/>
</g>
<!-- server&#45;&gt;logs -->
<g id="edge2" class="edge"><title>server&#45;&gt;logs</title>
<path fill="none" stroke="black" d="M82.8656,-113.921C83.984,-96.7301 85.2314,-77.5564 86.2166,-62.4128"/>
<polygon fill="black" stroke="black" points="89.7254,-62.3903 86.882,-52.1841 82.7401,-61.9358 89.7254,-62.3903"/>
<text text-anchor="start" x="95.1604" y="-84.2" font-family="Arial" font-weight="bold" font-size="11.00">Log</text>
<text text-anchor="start" x="86" y="-73.2" font-family="Arial" font-size="11.00">User IP</text>
</g>
</g>
</svg>
